<?xml version="1.0" encoding="UTF-8" standalone="no"?>
<svg width="16px" height="16px" viewBox="0 0 16 16" version="1.1" xmlns="http://www.w3.org/2000/svg" xmlns:xlink="http://www.w3.org/1999/xlink" xmlns:sketch="http://www.bohemiancoding.com/sketch/ns">
    <!-- Generator: Sketch 3.4.4 (17249) - http://www.bohemiancoding.com/sketch -->
    <title>icon_done</title>
    <desc>Created with Sketch.</desc>
    <defs></defs>
    <g id="Exports" stroke="none" stroke-width="1" fill="none" fill-rule="evenodd" sketch:type="MSPage">
        <g id="icon_done" sketch:type="MSArtboardGroup">
            <g id="V" sketch:type="MSLayerGroup" fill="#000000">
                <path d="M2,8 L2,8 C2,11.3081704 4.68974164,14 8,14 C11.3081704,14 14,11.3102584 14,8 C14,4.69182956 11.3102584,2 8,2 C4.69182956,2 2,4.68974164 2,8 L2,8 Z M0,8 C0,3.581722 3.59071231,0 8,0 C12.418278,0 16,3.59071231 16,8 C16,12.418278 12.4092877,16 8,16 C3.581722,16 0,12.4092877 0,8 L0,8 Z" id="Shape" sketch:type="MSShapeGroup"></path>
            </g>
            <path d="M5.5,8 L7.5,10 L10.5,6" id="Line" stroke="#000000" stroke-width="2" stroke-linecap="square" sketch:type="MSShapeGroup"></path>
        </g>
    </g>
</svg>