<?xml version="1.0" encoding="UTF-8" standalone="no"?>
<svg width="16px" height="16px" viewBox="0 0 16 16" version="1.1" xmlns="http://www.w3.org/2000/svg" xmlns:xlink="http://www.w3.org/1999/xlink" xmlns:sketch="http://www.bohemiancoding.com/sketch/ns">
    <!-- Generator: Sketch 3.4.4 (17249) - http://www.bohemiancoding.com/sketch -->
    <title>icon_user</title>
    <desc>Created with Sketch.</desc>
    <defs></defs>
    <g id="Exports" stroke="none" stroke-width="1" fill="none" fill-rule="evenodd" sketch:type="MSPage">
        <g id="icon_user" sketch:type="MSArtboardGroup">
            <path d="M3,12 L3,12 L3,14.9906311 C3,14.4476106 2.55087852,14 2.00684547,14 L13.9931545,14 C13.4438162,14 13,14.4451824 13,14.9906311 L13,12 C13,11.2054327 11.3191389,10 9.79953837,10 L6.20046163,10 C4.68320681,10 3,11.2050615 3,12 L3,12 Z M1,12 C1,9.790861 3.88810229,8 6.20046163,8 L9.79953837,8 C12.1193893,8 15,9.79535615 15,12 L15,14.9906311 C15,15.5480902 14.5500512,16 13.9931545,16 L2.00684547,16 C1.45078007,16 1,15.5566468 1,14.9906311 L1,12 L1,12 Z M8,5 L8,5 C8.47798017,5 9,4.39097687 9,3.5 C9,2.60902313 8.47798017,2 8,2 C7.52201983,2 7,2.60902313 7,3.5 C7,4.39097687 7.52201983,5 8,5 L8,5 Z M8,7 C6.34314575,7 5,5.43299662 5,3.5 C5,1.56700338 6.34314575,0 8,0 C9.65685425,0 11,1.56700338 11,3.5 C11,5.43299662 9.65685425,7 8,7 L8,7 Z" id="Shape" fill="#000000" sketch:type="MSShapeGroup"></path>
            <g id="V" sketch:type="MSLayerGroup" transform="translate(-130.000000, -48.000000)"></g>
        </g>
    </g>
</svg>