<?xml version="1.0" encoding="UTF-8" standalone="no"?>
<svg width="12px" height="12px" viewBox="0 0 12 12" version="1.1" xmlns="http://www.w3.org/2000/svg" xmlns:xlink="http://www.w3.org/1999/xlink" xmlns:sketch="http://www.bohemiancoding.com/sketch/ns">
    <!-- Generator: Sketch 3.4.4 (17249) - http://www.bohemiancoding.com/sketch -->
    <title>icon_eye</title>
    <desc>Created with Sketch.</desc>
    <defs></defs>
    <g id="Exports" stroke="none" stroke-width="1" fill="none" fill-rule="evenodd" sketch:type="MSPage">
        <g id="icon_eye" sketch:type="MSArtboardGroup" fill="#000000">
            <path d="M0,6 C1.21752097e-16,7.65696886 2.98632813,11 6,11 C9.01367188,11 12,7.65635851 12,6 C12,4.34364149 9.0425415,1 6,1 C2.9574585,1 1.23027777e-16,4.34303114 0,6 Z M6,9.5 C7.93299662,9.5 9.5,7.93299662 9.5,6 C9.5,4.06700338 7.93299662,2.5 6,2.5 C4.06700338,2.5 2.5,4.06700338 2.5,6 C2.5,7.93299662 4.06700338,9.5 6,9.5 Z M6,8 C7.1045695,8 8,7.1045695 8,6 C8,4.8954305 7.1045695,4 6,4 C4.8954305,4 4,4.8954305 4,6 C4,7.1045695 4.8954305,8 6,8 Z" id="Shape" sketch:type="MSShapeGroup"></path>
        </g>
    </g>
</svg>