<?xml version="1.0" standalone="no"?>
<!DOCTYPE svg PUBLIC "-//W3C//DTD SVG 20010904//EN"
 "http://www.w3.org/TR/2001/REC-SVG-20010904/DTD/svg10.dtd">
<svg version="1.0" xmlns="http://www.w3.org/2000/svg"
 width="512.000000pt" height="512.000000pt" viewBox="0 0 512.000000 512.000000"
 preserveAspectRatio="xMidYMid meet">
<metadata>
Created by potrace 1.11, written by Peter Selinger 2001-2013
</metadata>
<g transform="translate(0.000000,512.000000) scale(0.100000,-0.100000)"
fill="#000000" stroke="none">
<path d="M1195 4278 c-91 -241 -403 -1113 -400 -1116 2 -2 255 -96 562 -207
382 -139 560 -200 564 -192 8 15 397 1087 401 1105 2 9 -175 78 -557 217 -308
113 -561 205 -563 205 -1 0 -5 -6 -7 -12z m516 -334 c222 -81 408 -150 412
-154 7 -7 -272 -795 -293 -830 -6 -9 -123 29 -427 140 l-420 152 143 392 c174
478 162 446 173 446 5 0 190 -66 412 -146z"/>
<path d="M3549 3462 c-214 -56 -371 -263 -368 -489 2 -268 230 -493 499 -493
221 0 426 158 482 369 97 374 -239 710 -613 613z m276 -166 c70 -32 140 -102
173 -174 22 -48 27 -71 27 -142 0 -104 -29 -174 -100 -245 -71 -71 -141 -100
-245 -100 -104 0 -174 29 -245 100 -71 71 -100 141 -100 245 0 71 5 94 27 142
44 95 136 173 235 198 61 15 167 4 228 -24z"/>
<path d="M2240 1793 c-24 -54 -105 -239 -181 -410 -75 -172 -134 -313 -130
-313 19 0 964 170 968 174 5 5 -559 601 -599 634 -13 11 -22 -1 -58 -85z m357
-449 c-6 -6 -409 -75 -413 -71 -4 4 30 85 128 307 l20 45 134 -139 c73 -77
132 -141 131 -142z"/>
<path d="M0 75 l0 -75 2560 0 2560 0 0 75 0 75 -2560 0 -2560 0 0 -75z"/>
</g>
</svg>
