<?xml version="1.0" encoding="UTF-8" standalone="no"?>
<svg width="16px" height="16px" viewBox="0 0 16 16" version="1.1" xmlns="http://www.w3.org/2000/svg" xmlns:xlink="http://www.w3.org/1999/xlink" xmlns:sketch="http://www.bohemiancoding.com/sketch/ns">
    <!-- Generator: Sketch 3.5.1 (25234) - http://www.bohemiancoding.com/sketch -->
    <title>Oval 59 + Oval 59 + Oval 61</title>
    <desc>Created with Sketch.</desc>
    <defs></defs>
    <g id="Dribbble" stroke="none" stroke-width="1" fill="none" fill-rule="evenodd" sketch:type="MSPage">
        <g id="1.0-Dashboard" sketch:type="MSArtboardGroup" transform="translate(-32.000000, -24.000000)" fill="#FFFFFF">
            <g id="Topbar" sketch:type="MSLayerGroup">
                <g id="Add-theme" transform="translate(32.000000, 19.000000)" sketch:type="MSShapeGroup">
                    <g id="Oval-59-+-Oval-59-+-Oval-61" transform="translate(0.000000, 5.000000)">
                        <path d="M12.17787,1.17624735 C10.9618904,0.430168652 9.53118082,0 8,0 C3.581722,0 0,3.581722 0,8 C0,12.418278 3.581722,16 8,16 C12.418278,16 16,12.418278 16,8 C16,6.46881918 15.5698313,5.03810963 14.8237527,3.82212997 C14.9369796,3.57134848 15,3.29303385 15,3 C15,1.8954305 14.1045695,1 13,1 C12.7069662,1 12.4286515,1.06302043 12.17787,1.17624735 Z M13.1920321,4.99090002 C13.705804,5.87547353 14,6.90338019 14,8 C14,11.3137085 11.3137085,14 8,14 C4.6862915,14 2,11.3137085 2,8 C2,4.6862915 4.6862915,2 8,2 C9.09661981,2 10.1245265,2.29419596 11.0091,2.80796789 C11.0030795,2.87116707 11,2.93522391 11,3 C11,4.1045695 11.8954305,5 13,5 C13.0647761,5 13.1288329,4.99692054 13.1920321,4.99090002 Z" id="Shape"></path>
                        <path d="M8,10 L8,10 C9.1045695,10 10,9.1045695 10,8 C10,6.8954305 9.1045695,6 8,6 C6.8954305,6 6,6.8954305 6,8 C6,9.1045695 6.8954305,10 8,10 L8,10 Z M8,12 L8,12 C5.790861,12 4,10.209139 4,8 C4,5.790861 5.790861,4 8,4 C10.209139,4 12,5.790861 12,8 C12,10.209139 10.209139,12 8,12 L8,12 Z" id="Shape"></path>
                    </g>
                </g>
            </g>
        </g>
    </g>
</svg>