<?xml version="1.0" encoding="UTF-8" standalone="no"?>
<svg width="16px" height="16px" viewBox="0 0 16 16" version="1.1" xmlns="http://www.w3.org/2000/svg" xmlns:xlink="http://www.w3.org/1999/xlink" xmlns:sketch="http://www.bohemiancoding.com/sketch/ns">
    <!-- Generator: Sketch 3.4.4 (17249) - http://www.bohemiancoding.com/sketch -->
    <title>icon_tasks</title>
    <desc>Created with Sketch.</desc>
    <defs></defs>
    <g id="Exports" stroke="none" stroke-width="1" fill="none" fill-rule="evenodd" sketch:type="MSPage">
        <g id="icon_tasks" sketch:type="MSArtboardGroup" fill="#000000">
            <path d="M2,13 L2,11 L0,11 L0,13 L2,13 Z M15,5 L15,3 L3,3 L3,5 L15,5 Z M16,9 L16,7 L3,7 L3,9 L16,9 Z M13,13 L13,11 L3,11 L3,13 L13,13 Z M2,9 L2,7 L0,7 L0,9 L2,9 Z M2,5 L2,3 L0,3 L0,5 L2,5 Z" id="Shape" sketch:type="MSShapeGroup"></path>
        </g>
    </g>
</svg>