<?xml version="1.0" standalone="no"?>
<!DOCTYPE svg PUBLIC "-//W3C//DTD SVG 1.1//EN" "http://www.w3.org/Graphics/SVG/1.1/DTD/svg11.dtd" >
<svg xmlns="http://www.w3.org/2000/svg" xmlns:xlink="http://www.w3.org/1999/xlink" version="1.1">
<metadata>
Created by FontForge 20150828 at Wed Feb  3 12:09:20 2016
 By Anne Korteweg
</metadata>
<defs>
<font id="icons" horiz-adv-x="512" >
  <font-face 
    font-family="icons"
    font-weight="400"
    font-stretch="normal"
    units-per-em="512"
    panose-1="2 0 5 9 0 0 0 0 0 0"
    ascent="448"
    descent="-64"
    bbox="0 -64 512 448"
    underline-thickness="25"
    underline-position="-76"
    unicode-range="U+F101-F116"
  />
<missing-glyph 
d="M17 0v341h136v-341h-136zM34 17h102v307h-102v-307z" />
    <glyph glyph-name=".notdef" 
d="M17 0v341h136v-341h-136zM34 17h102v307h-102v-307z" />
    <glyph glyph-name=".null" horiz-adv-x="0" 
 />
    <glyph glyph-name="nonmarkingreturn" 
 />
    <glyph glyph-name="uniF101" unicode="&#xf101;" 
d="M256 363q-18 0 -30.5 12.5t-12.5 30t12.5 30t30.5 12.5t30.5 -12.5t12.5 -30t-12.5 -30t-30.5 -12.5zM256 149q-18 0 -30.5 12.5t-12.5 30.5t12.5 30.5t30.5 12.5t30.5 -12.5t12.5 -30.5t-12.5 -30.5t-30.5 -12.5zM256 -64q-18 0 -30.5 12.5t-12.5 30t12.5 30t30.5 12.5
t30.5 -12.5t12.5 -30t-12.5 -30t-30.5 -12.5z" />
    <glyph glyph-name="uniF102" unicode="&#xf102;" 
d="M192 192l-192 192l64 64l256 -256l-64 -64l-192 -192l-64 64zM320 192l192 -192l-64 -64l-192 192l-64 64l256 256l64 -64z" />
    <glyph glyph-name="uniF103" unicode="&#xf103;" 
d="M160 192q0 40 28 68t68 28t68 -28t28 -68t-28 -68t-68 -28t-68 28t-28 68z" />
    <glyph glyph-name="uniF104" unicode="&#xf104;" 
d="M64 192q0 -79 56.5 -135.5t135.5 -56.5t135.5 56.5t56.5 135.5t-56.5 135.5t-135.5 56.5t-135.5 -56.5t-56.5 -135.5zM0 192q0 106 75 181t181 75t181 -75t75 -181t-75 -181t-181 -75t-181 75t-75 181zM199 215l-46 -46l90 -90l119 158l-52 38l-73 -98z" />
    <glyph glyph-name="uniF105" unicode="&#xf105;" 
d="M354 265l60 -61l-158 -158l-158 158l60 61l98 -98z" />
    <glyph glyph-name="uniF106" unicode="&#xf106;" 
d="M0 192q0 27 22 63.5t56.5 70t83 56.5t94.5 23t94.5 -23t83 -56.5t56.5 -70t22 -63.5t-22.5 -63.5t-57 -70t-82.5 -56.5t-94 -23t-94 23t-82.5 56.5t-57 70t-22.5 63.5zM256 43q62 0 105.5 43.5t43.5 105.5t-43.5 105.5t-105.5 43.5t-105.5 -43.5t-43.5 -105.5
t43.5 -105.5t105.5 -43.5zM256 107q-35 0 -60 25t-25 60t25 60t60 25t60 -25t25 -60t-25 -60t-60 -25z" />
    <glyph glyph-name="uniF107" unicode="&#xf107;" 
d="M512 277q0 -30 -9.5 -52.5t-33.5 -53.5q-25 -33 -111.5 -112.5t-101.5 -79.5t-104 81t-109 111q-11 15 -17.5 25.5t-13 24t-9.5 27.5t-3 29q0 13 4.5 26t10.5 23.5t12.5 19t10.5 12.5l5 5q4 4 13 11.5t37 19t56.5 11.5t55 -10.5t39.5 -21.5l12 -10q2 1 5 4t14 10.5
t22.5 13t29.5 10t35.5 4.5t35 -4t30 -10.5t22.5 -13t14 -10.5l5 -4q5 -5 12 -13.5t19 -31t12 -41.5z" />
    <glyph glyph-name="uniF108" unicode="&#xf108;" 
d="M244 290l-61 60l-158 -158l158 -158l61 60l-98 98zM457 290l-61 60l-158 -158l158 -158l61 60l-98 98z" />
    <glyph glyph-name="uniF109" unicode="&#xf109;" 
d="M35 192l237 237l45 -45l-189 -192l189 -192l-45 -45z" />
    <glyph glyph-name="uniF10A" unicode="&#xf10a;" 
d="M329 290l-61 60l-158 -158l158 -158l61 60l-98 98z" />
    <glyph glyph-name="uniF10B" unicode="&#xf10b;" 
d="M55 332l61 61l200 -201l-22 -23l-8 -8l-2 -1l6 6l4 4l1 1h1v1l-10 -10l-170 -171l-61 61l141 140zM457 52l-61 -61l-200 201l200 201l61 -61l-141 -140zM457 52l-61 -61l-200 201l200 201l61 -61l-141 -140z" />
    <glyph glyph-name="uniF10C" unicode="&#xf10c;" 
d="M5 151l47 -32l38 57l88 -89l74 148l91 -242l96 289l24 -25l41 40l-90 90l-74 -224l-80 214l-97 -194l-82 82z" />
    <glyph glyph-name="uniF10D" unicode="&#xf10d;" 
d="M256 0q80 0 136 56t56 136t-56 136t-136 56t-136 -56t-56 -136t56 -136t136 -56zM256 -64q-106 0 -181 75t-75 181t75 181t181 75t181 -75t75 -181t-75 -181t-181 -75zM218 166q-2 14 2 26.5t11.5 21.5t15 17t13 16t5.5 15q0 19 -21 19q-14 0 -32 -16l-36 33q30 36 72 36
q24 0 41 -6.5t28 -22t11 -39.5q0 -19 -14 -35.5t-27 -32t-11 -32.5h-58zM208 107q0 17 11 28.5t27.5 11.5t27.5 -11.5t11 -28.5t-11 -28.5t-27.5 -11.5t-27.5 11.5t-11 28.5z" />
    <glyph glyph-name="uniF10E" unicode="&#xf10e;" 
d="M333 192l-237 -237l-45 45l189 192l-189 192l45 45z" />
    <glyph glyph-name="uniF10F" unicode="&#xf10f;" 
d="M140 290l61 60l158 -158l-158 -158l-61 60l98 98z" />
    <glyph glyph-name="uniF110" unicode="&#xf110;" 
d="M213 107q53 0 90.5 37.5t37.5 90.5t-37.5 90.5t-90.5 37.5t-90.5 -37.5t-37.5 -90.5t37.5 -90.5t90.5 -37.5zM213.5 21q-88.5 0 -151 62.5t-62.5 151t62.5 151t151 62.5t151 -62.5t62.5 -151t-62.5 -151t-151 -62.5zM290 98l60 60l151 -151l-60 -60z" />
    <glyph glyph-name="uniF111" unicode="&#xf111;" 
d="M390 410q-62 38 -134 38q-106 0 -181 -75t-75 -181t75 -181t181 -75t181 75t75 181q0 72 -38 134q6 12 6 26q0 27 -18.5 45.5t-45.5 18.5q-14 0 -26 -6zM422 288q26 -44 26 -96q0 -80 -56 -136t-136 -56t-136 56t-56 136t56 136t136 56q52 0 96 -26v-6q0 -27 18.5 -45.5
t45.5 -18.5h6zM256 128q-27 0 -45.5 18.5t-18.5 45.5t18.5 45.5t45.5 18.5t45.5 -18.5t18.5 -45.5t-18.5 -45.5t-45.5 -18.5zM256 64q53 0 90.5 37.5t37.5 90.5t-37.5 90.5t-90.5 37.5t-90.5 -37.5t-37.5 -90.5t37.5 -90.5t90.5 -37.5z" />
    <glyph glyph-name="uniF112" unicode="&#xf112;" 
d="M43 320q0 35 24.5 60t60.5 25h256q35 0 60 -24.5t25 -60.5v-171q0 -35 -24.5 -60t-60.5 -25h-256q-35 0 -60 25t-25 60v171zM256 -21v85h128z" />
    <glyph glyph-name="uniF113" unicode="&#xf113;" 
d="M64 32h-64v64h64v-64zM480 288h-384v64h384v-64zM512 160h-416v64h416v-64zM416 32h-320v64h320v-64zM64 160h-64v64h64v-64zM64 288h-64v64h64v-64z" />
    <glyph glyph-name="uniF114" unicode="&#xf114;" 
d="M354 119l60 61l-158 158l-158 -158l60 -61l98 98z" />
    <glyph glyph-name="uniF115" unicode="&#xf115;" 
d="M55 158l61 -60l119 119l119 -119l60 60l-179 180z" />
    <glyph glyph-name="uniF116" unicode="&#xf116;" 
d="M96 64q0 20 33.5 42t68.5 22h116q23 0 47.5 -10.5t39.5 -25.5t15 -28v-96q0 13 9.5 22.5t22.5 9.5h-384q13 0 22.5 -9.5t9.5 -22.5v96zM32 64q0 51 54 89.5t112 38.5h116q58 0 112 -38.5t54 -89.5v-96q0 -13 -9.5 -22.5t-22.5 -9.5h-384q-9 0 -16 4.5t-11.5 11.5t-4.5 16
v96zM256 288q12 0 22 14t10 34t-10 34t-22 14t-22 -14t-10 -34t10 -34t22 -14zM256 224q-40 0 -68 33t-28 79t28 79t68 33t68 -33t28 -79t-28 -79t-68 -33z" />
  </font>
</defs>
</svg>
